<svg version="1" xmlns="http://www.w3.org/2000/svg" width="960" height="960" viewBox="0 0 720.000000 720.000000"><path d="M3.9 185.2c5.3 7.2 69.2 93.5 95.9 129.8 11.9 16.2 34.5 46.8 50.2 68.1 15.7 21.2 48.1 65.2 72 97.7l43.5 59.1 94.5.1h94.5l130-176.2C656 267 715.8 186 717.4 183.8l2.8-3.9-9.3.3-9.3.3-106.3 144c-58.5 79.2-113.2 153.4-121.7 164.8l-15.4 20.8-8.7-11.7c-7.9-10.7-8.6-12-7.5-13.8 1.1-1.7 169.8-230.6 209.6-284.3 6.2-8.3 12-16.3 12.9-17.7l1.7-2.6H648.5l-38.6 52.2C588.7 261 540.6 326.1 503 377c-37.6 50.9-69.1 93.5-70 94.7-1.7 2.2-1.8 2.1-10.4-9.8l-8.7-11.9 21.4-29.3c11.9-16 56.6-76.7 99.4-134.7l77.9-105.5-8.4-.3c-4.6-.2-8.9.2-9.5.7-.7.5-43.5 58.3-95.2 128.5-51.7 70.1-94.3 127.5-94.6 127.5-.4.1-4.6-5.1-9.3-11.5-5.9-7.8-8.4-11.9-7.8-12.7.5-.7 26.9-36.5 58.7-79.7 31.9-43.2 69.9-94.7 84.5-114.5 14.6-19.8 26.9-36.6 27.3-37.3.6-.9-1.2-1.2-8-1.2h-8.9l-68.5 92.7c-37.6 51-74.2 100.7-81.4 110.5-7.1 9.7-13.3 17.6-13.7 17.5-1.7-.5-17.6-23.3-16.9-24.2C373.7 359.5 505 181 505 180.6c0-.3-3.8-.6-8.5-.6H488l-13.3 17.9c-7.2 9.8-37.9 51.4-68.2 92.4-51.3 69.6-55.1 74.4-56.7 72.9-.9-.9-27.2-36.4-58.5-78.7-31.3-42.4-61.5-83.2-67.1-90.8L214 180H-.1l4 5.2z"/></svg>